<svg width="21" height="22" viewBox="0 0 21 22" fill="none" xmlns="http://www.w3.org/2000/svg">
<path d="M9.5715 1.32168C9.90673 0.483455 11.0933 0.483454 11.4285 1.32168L13.5768 6.69339C13.7174 7.04509 14.0447 7.28713 14.4222 7.3186L20.0666 7.78921C20.9422 7.86222 21.3048 8.94796 20.6487 9.53243L16.2915 13.4142C16.019 13.6569 15.9004 14.0288 15.982 14.3844L17.303 20.144C17.5028 21.0152 16.5466 21.6909 15.7921 21.2117L11.0362 18.1906C10.709 17.9827 10.291 17.9827 9.96381 18.1906L5.20788 21.2117C4.45344 21.6909 3.49719 21.0152 3.697 20.144L5.01804 14.3844C5.09961 14.0288 4.98099 13.6569 4.70854 13.4142L0.351272 9.53243C-0.30479 8.94796 0.0577679 7.86222 0.933375 7.78921L6.5778 7.3186C6.95527 7.28713 7.28256 7.04509 7.42321 6.69339L9.5715 1.32168Z" fill="#F7C351"/>
</svg>
