<svg width="23" height="23" viewBox="0 0 23 23" fill="none" xmlns="http://www.w3.org/2000/svg">
<path d="M9.76795 3C10.5377 1.66667 12.4623 1.66667 13.2321 3L19.7272 14.25C20.497 15.5833 19.5348 17.25 17.9952 17.25H5.00481C3.46521 17.25 2.50296 15.5833 3.27276 14.25L9.76795 3Z" fill="#FF4545"/>
<path d="M12.2148 7.63672L12.083 12.0576H10.8262L10.6943 7.63672H12.2148ZM11.4502 14.0879C11.0107 14.0879 10.6504 13.7363 10.6592 13.2881C10.6504 12.8574 11.0107 12.5059 11.4502 12.5059C11.8721 12.5059 12.2412 12.8574 12.25 13.2881C12.2412 13.7363 11.8721 14.0879 11.4502 14.0879Z" fill="white"/>
</svg>
