<svg width="20" height="20" viewBox="0 0 20 20" fill="none" xmlns="http://www.w3.org/2000/svg">
<path d="M13.333 3.33398H14.9997C15.4417 3.33398 15.8656 3.50958 16.1782 3.82214C16.4907 4.1347 16.6663 4.55862 16.6663 5.00065V16.6673C16.6663 17.1093 16.4907 17.5333 16.1782 17.8458C15.8656 18.1584 15.4417 18.334 14.9997 18.334H4.99967C4.55765 18.334 4.13372 18.1584 3.82116 17.8458C3.5086 17.5333 3.33301 17.1093 3.33301 16.6673V5.00065C3.33301 4.55862 3.5086 4.1347 3.82116 3.82214C4.13372 3.50958 4.55765 3.33398 4.99967 3.33398H6.66634" stroke="white" stroke-width="2" stroke-linecap="round" stroke-linejoin="round"/>
<path d="M12.5003 1.66602H7.50033C7.04009 1.66602 6.66699 2.03911 6.66699 2.49935V4.16602C6.66699 4.62625 7.04009 4.99935 7.50033 4.99935H12.5003C12.9606 4.99935 13.3337 4.62625 13.3337 4.16602V2.49935C13.3337 2.03911 12.9606 1.66602 12.5003 1.66602Z" stroke="white" stroke-width="2" stroke-linecap="round" stroke-linejoin="round"/>
</svg>
