<svg width="19" height="19" viewBox="0 0 19 19" fill="none" xmlns="http://www.w3.org/2000/svg">
<g clip-path="url(#clip0_3783_7573)">
<path d="M9.5 0.791748V18.2084" stroke="white" stroke-width="2" stroke-linecap="round" stroke-linejoin="round"/>
<path d="M13.4583 3.95825H7.52083C6.78596 3.95825 6.08119 4.25018 5.56156 4.76981C5.04193 5.28944 4.75 5.99421 4.75 6.72909C4.75 7.46396 5.04193 8.16873 5.56156 8.68836C6.08119 9.20799 6.78596 9.49992 7.52083 9.49992H11.4792C12.214 9.49992 12.9188 9.79184 13.4384 10.3115C13.9581 10.8311 14.25 11.5359 14.25 12.2708C14.25 13.0056 13.9581 13.7104 13.4384 14.23C12.9188 14.7497 12.214 15.0416 11.4792 15.0416H4.75" stroke="white" stroke-width="2" stroke-linecap="round" stroke-linejoin="round"/>
</g>
<defs>
<clipPath id="clip0_3783_7573">
<rect width="19" height="19" fill="white"/>
</clipPath>
</defs>
</svg>
