<svg width="130" height="155" viewBox="0 0 130 155" fill="none" xmlns="http://www.w3.org/2000/svg">
<path d="M0 67.584C0 63.1657 3.58172 59.584 8 59.584H122C126.418 59.584 130 63.1657 130 67.584V134.376C130 145.421 121.046 154.376 110 154.376H20C8.9543 154.376 0 145.421 0 134.376V67.584Z" fill="#DDE2F2"/>
<path d="M64.998 0C89.9275 0 110.137 20.2093 110.137 45.1387V92.083C110.137 117.013 89.9276 137.223 64.998 137.223C40.0685 137.223 19.8594 117.013 19.8594 92.083V45.1387C19.8595 20.2093 40.0686 2.29069e-07 64.998 0ZM64.998 16.25C49.0432 16.25 36.1095 29.1839 36.1094 45.1387V88.4727C36.1096 104.427 49.0433 117.361 64.998 117.361C80.9528 117.361 93.8865 104.427 93.8867 88.4727V45.1387C93.8866 29.1839 80.9529 16.25 64.998 16.25Z" fill="#DDE2F2"/>
<circle cx="64.9987" cy="93.8893" r="13.5417" fill="white"/>
<path d="M63.1335 96.029C63.7912 94.3203 66.2088 94.3203 66.8665 96.029L78.0266 125.024C78.5308 126.334 77.5639 127.742 76.1601 127.742H53.8399C52.4362 127.742 51.4692 126.334 51.9734 125.024L63.1335 96.029Z" fill="white"/>
</svg>
