<svg width="16" height="16" viewBox="0 0 16 16" fill="none" xmlns="http://www.w3.org/2000/svg">
<g clip-path="url(#clip0_4465_7275)">
<path d="M0.667969 2.66602V6.66602H4.66797" stroke="black" stroke-width="2" stroke-linecap="round" stroke-linejoin="round"/>
<path d="M15.332 13.334V9.33398H11.332" stroke="black" stroke-width="2" stroke-linecap="round" stroke-linejoin="round"/>
<path d="M13.6613 6.00038C13.3232 5.0449 12.7485 4.19064 11.991 3.51732C11.2334 2.844 10.3177 2.37355 9.32911 2.14988C8.34056 1.92621 7.31147 1.9566 6.33784 2.23823C5.36422 2.51985 4.4778 3.04352 3.7613 3.76038L0.667969 6.66704M15.3346 9.33371L12.2413 12.2404C11.5248 12.9572 10.6384 13.4809 9.66476 13.7625C8.69114 14.0441 7.66204 14.0745 6.67349 13.8509C5.68495 13.6272 4.76917 13.1568 4.01161 12.4834C3.25406 11.8101 2.67941 10.9559 2.3413 10.0004" stroke="black" stroke-width="2" stroke-linecap="round" stroke-linejoin="round"/>
</g>
<defs>
<clipPath id="clip0_4465_7275">
<rect width="16" height="16" fill="white"/>
</clipPath>
</defs>
</svg>
