<svg width="20" height="20" viewBox="0 0 20 20" fill="none" xmlns="http://www.w3.org/2000/svg">
<path d="M13.3333 3.33333H14.9999C15.4419 3.33333 15.8659 3.50892 16.1784 3.82148C16.491 4.13404 16.6666 4.55797 16.6666 4.99999V16.6667C16.6666 17.1087 16.491 17.5326 16.1784 17.8452C15.8659 18.1577 15.4419 18.3333 14.9999 18.3333H4.99992C4.55789 18.3333 4.13397 18.1577 3.82141 17.8452C3.50885 17.5326 3.33325 17.1087 3.33325 16.6667V4.99999C3.33325 4.55797 3.50885 4.13404 3.82141 3.82148C4.13397 3.50892 4.55789 3.33333 4.99992 3.33333H6.66659" stroke="#666666" stroke-width="2" stroke-linecap="round" stroke-linejoin="round"/>
<path d="M12.5001 1.66667H7.50008C7.03984 1.66667 6.66675 2.03977 6.66675 2.50001V4.16667C6.66675 4.62691 7.03984 5.00001 7.50008 5.00001H12.5001C12.9603 5.00001 13.3334 4.62691 13.3334 4.16667V2.50001C13.3334 2.03977 12.9603 1.66667 12.5001 1.66667Z" stroke="#989898" stroke-width="2" stroke-linecap="round" stroke-linejoin="round"/>
</svg>
