<svg width="506" height="18" viewBox="0 0 506 18" fill="none" xmlns="http://www.w3.org/2000/svg">
<path d="M251.796 8.06738V9.18066H247.05V3.30664H251.664V4.43457H248.441V8.06738H251.796ZM252.719 12.4766V13.6045H240.707V12.4766H245.98V9.81055H247.343V12.4766H252.719ZM246.229 3.32129V4.44922H243.095V8.03809C244.186 8.02344 245.211 7.93555 246.347 7.68652L246.464 8.84375C245.058 9.15137 243.871 9.18066 242.479 9.18066H241.703V3.32129H246.229ZM263.916 5.95801V7.07129H254.878V2.58887H256.255V5.95801H263.916ZM265.293 8.72656V9.83984H253.281V8.72656H265.293ZM264.004 13.7949V14.9375H254.775V11.085H256.167V13.7949H264.004Z" fill="#989898"/>
<line y1="8.5" x2="230" y2="8.5" stroke="#D4D8E5"/>
<line x1="276" y1="8.5" x2="506" y2="8.50002" stroke="#D4D8E5"/>
</svg>
